<?xml version="1.0" encoding="UTF-8"?>
<svg version="1.1" xmlns="http://www.w3.org/2000/svg" width="1200" height="1200">
<path d="M0 0 C92.10144905 -1.42635928 181.57499219 18.68787935 283.35546875 69.06201172 C284.41362793 69.64160645 284.41362793 69.64160645 285.49316406 70.23291016 C297.72571058 76.95489449 309.6196854 84.12842005 321.1953125 91.93701172 C323.44952265 93.45282176 325.70996083 94.95226648 327.984375 96.43701172 C335.84774143 101.58656273 343.3855894 107.00369708 350.76708984 112.82080078 C352.35380861 114.06071443 353.95477033 115.27918477 355.5625 116.49169922 C366.55483764 124.79624481 376.92170058 133.78144079 387.1171875 143.04248047 C389.23524323 144.95353599 391.38261442 146.82406755 393.54296875 148.68701172 C397.32337816 151.97962637 400.85099195 155.48004035 404.35546875 159.06201172 C405.22171875 159.92826172 406.08796875 160.79451172 406.98046875 161.68701172 C408.5227866 163.22932956 410.06448914 164.77226305 411.60546875 166.31591797 C413.54583071 168.25352373 415.49071676 170.18566399 417.44140625 172.11279297 C423.30757868 177.92059552 429.03182876 183.74715006 434.35546875 190.06201172 C435.28925681 191.14499912 436.22426954 192.22693114 437.16015625 193.30810547 C454.66311261 213.55678627 470.83380359 235.01081605 485.16796875 257.62451172 C485.77398926 258.5790625 486.38000977 259.53361328 487.00439453 260.51708984 C491.92845059 268.31123409 496.67295763 276.1947325 501.26904297 284.18603516 C502.28348585 285.93771586 503.320602 287.67621119 504.359375 289.41357422 C530.41097468 333.51709045 547.39429703 383.47540664 559.35546875 433.06201172 C559.60280762 434.08601074 559.85014648 435.11000977 560.10498047 436.16503906 C569.77782975 476.8517634 573.57790653 518.19483493 573.54296875 559.93701172 C573.54269684 561.15711945 573.54242493 562.37722717 573.54214478 563.63430786 C573.52412869 581.19825996 573.28399939 598.58916701 571.35546875 616.06201172 C571.25363281 617.0376709 571.15179687 618.01333008 571.046875 619.01855469 C567.34285248 653.86951966 560.65916744 688.55042718 550.35546875 722.06201172 C550.0929834 722.93019531 549.83049805 723.79837891 549.56005859 724.69287109 C536.92825579 766.35142552 519.42841432 806.54884425 497.35546875 844.06201172 C496.57574707 845.39449951 496.57574707 845.39449951 495.78027344 846.75390625 C486.15251016 863.16939354 475.78156381 878.8474236 464.35546875 894.06201172 C463.85144531 894.73490234 463.34742188 895.40779297 462.828125 896.10107422 C451.80499475 910.78025515 440.39770981 925.13230775 427.81103516 938.50927734 C426.215961 940.21083247 424.63479104 941.92467386 423.0546875 943.64013672 C403.10349055 965.24880049 403.10349055 965.24880049 392.38671875 974.30810547 C390.28801373 976.12025654 388.26558574 978.0039896 386.24243164 979.8996582 C380.3233859 985.42875228 374.14340423 990.48860379 367.734375 995.43701172 C364.68221896 997.79396879 361.69976619 1000.22612636 358.73046875 1002.68701172 C337.89363341 1019.79323462 314.89445779 1034.95985692 291.35546875 1048.06201172 C290.5989502 1048.48659668 289.84243164 1048.91118164 289.06298828 1049.34863281 C276.45486763 1056.40832089 263.69153161 1062.96363622 250.57666016 1069.02929688 C248.69723273 1069.90311288 246.82788415 1070.79855711 244.9609375 1071.69873047 C235.2330909 1076.35228749 225.14753559 1080.12580798 215.09057617 1083.99755859 C212.4634855 1085.0199736 209.85033963 1086.07219693 207.23828125 1087.13232422 C198.75866478 1090.53354888 190.05224751 1093.2757198 181.35546875 1096.06201172 C179.86829346 1096.54226807 179.86829346 1096.54226807 178.35107422 1097.03222656 C139.60558552 1109.4201559 98.87264053 1116.91897667 58.35546875 1120.06201172 C56.51915894 1120.2066687 56.51915894 1120.2066687 54.64575195 1120.35424805 C41.12278205 1121.28723909 27.59289827 1121.26159159 14.04296875 1121.24951172 C12.79436066 1121.24890747 11.54575256 1121.24830322 10.25930786 1121.24768066 C-7.45299195 1121.22437669 -25.02706354 1121.07043 -42.64453125 1119.06201172 C-43.85608887 1118.92778809 -45.06764648 1118.79356445 -46.31591797 1118.65527344 C-111.42535245 1111.27004302 -176.76906645 1094.209905 -235.15625 1063.87060547 C-237.56538477 1062.62152439 -239.97326177 1061.4048497 -242.4140625 1060.22216797 C-269.5800817 1047.02276288 -295.51183757 1030.72424993 -319.53125 1012.42529297 C-321.81265279 1010.69348784 -324.10385956 1008.9849262 -326.4140625 1007.29248047 C-335.24647843 1000.79805699 -343.60330868 993.9329034 -351.81103516 986.66894531 C-353.63869744 985.06712465 -355.48604622 983.49213173 -357.34375 981.92529297 C-364.45732568 975.92503048 -371.16408246 969.75113328 -377.64453125 963.06201172 C-381.17237448 959.47471619 -381.17237448 959.47471619 -385.01953125 956.24951172 C-387.97907709 953.78322352 -390.32792434 951.05938042 -392.82421875 948.13623047 C-394.5304795 946.19197198 -396.2974961 944.37177486 -398.14453125 942.56201172 C-401.85666484 938.89904546 -405.25134007 935.01966571 -408.64453125 931.06201172 C-409.55168664 930.01869792 -410.45927206 928.97575793 -411.3671875 927.93310547 C-432.43893807 903.65440813 -450.86471662 877.45788054 -467.64453125 850.06201172 C-468.12954102 849.27536133 -468.61455078 848.48871094 -469.11425781 847.67822266 C-475.42177158 837.43001457 -481.40301685 827.15132413 -486.58007812 816.28515625 C-487.76740294 813.80539025 -488.97895053 811.33817739 -490.19140625 808.87060547 C-505.543229 777.4529217 -518.3209742 744.78759401 -527.64453125 711.06201172 C-527.85094238 710.33224121 -528.05735352 709.6024707 -528.27001953 708.85058594 C-542.02324962 660.04638874 -547.90243704 608.75770907 -547.83203125 558.12451172 C-547.83109467 557.23749573 -547.83015808 556.35047974 -547.82919312 555.43658447 C-547.73445924 513.63701294 -542.19964962 472.71808987 -533.0736084 431.98150635 C-532.69691652 430.29635941 -532.32691982 428.60971875 -531.95800781 426.92285156 C-528.3685915 410.64505762 -522.92686039 394.85292345 -517.64453125 379.06201172 C-517.19327881 377.71236328 -517.19327881 377.71236328 -516.73291016 376.33544922 C-508.79275356 352.78572252 -499.47983743 329.06831143 -487.4296875 307.31591797 C-485.80267957 304.3502777 -484.30237669 301.35742805 -482.83203125 298.31201172 C-474.18540911 280.85384549 -463.57684556 264.15735104 -452.64453125 248.06201172 C-452.2386377 247.46018066 -451.83274414 246.85834961 -451.41455078 246.23828125 C-435.77764337 223.06835107 -418.74080928 199.43905786 -398.55957031 179.9777832 C-396.76523647 178.1827631 -395.11644858 176.3342929 -393.47265625 174.40185547 C-389.41520137 169.73155864 -385.0912309 165.36151289 -380.70703125 160.99951172 C-379.94712891 160.23574219 -379.18722656 159.47197266 -378.40429688 158.68505859 C-374.21602059 154.50393564 -369.94100612 150.49310961 -365.45581055 146.63256836 C-362.91259481 144.4273511 -360.47260404 142.11662765 -358.01953125 139.81201172 C-352.58691659 134.77288697 -346.86378406 130.19524539 -341 125.67138672 C-338.07222823 123.41100502 -335.22807182 121.06492938 -332.39453125 118.68701172 C-320.1445273 108.61678788 -306.93176806 99.69693239 -293.64453125 91.06201172 C-292.70480469 90.44970703 -291.76507813 89.83740234 -290.796875 89.20654297 C-283.18878676 84.31002668 -275.43690418 79.65711249 -267.64453125 75.06201172 C-266.86819336 74.60133301 -266.09185547 74.1406543 -265.29199219 73.66601562 C-251.76100368 65.66361661 -237.95025858 58.5747547 -223.64453125 52.06201172 C-222.72478516 51.64209961 -221.80503906 51.2221875 -220.85742188 50.78955078 C-199.03420777 40.89728706 -176.52718734 32.1853445 -153.64453125 25.06201172 C-152.84063965 24.80532715 -152.03674805 24.54864258 -151.20849609 24.28417969 C-102.64156092 8.87237017 -50.92223731 0.86644214 0 0 Z M-155.64453125 54.06201172 C-157.16046875 54.55652832 -157.16046875 54.55652832 -158.70703125 55.06103516 C-183.19157405 63.07874615 -206.60743871 73.57611765 -229.64453125 85.06201172 C-231.01085693 85.74215332 -231.01085693 85.74215332 -232.40478516 86.43603516 C-258.96203833 99.75601303 -284.15038834 115.88282621 -307.64453125 134.06201172 C-308.68351563 134.84705078 -309.7225 135.63208984 -310.79296875 136.44091797 C-321.32338969 144.41175255 -331.37474411 152.89674804 -341.1328125 161.79638672 C-342.46865694 163.00134749 -343.80998402 164.20116805 -345.18676758 165.35913086 C-352.04931938 171.18086385 -358.33232802 177.59939818 -364.6809082 183.96801758 C-366.70217393 185.99464152 -368.72872699 188.01586719 -370.75585938 190.03662109 C-376.92824991 196.20549557 -383.05337354 202.35242167 -388.64453125 209.06201172 C-389.54463446 210.10709156 -390.44564417 211.15139148 -391.34765625 212.19482422 C-406.96508353 230.54290596 -421.66493864 249.74926164 -434.64453125 270.06201172 C-435.13775879 270.83206543 -435.63098633 271.60211914 -436.13916016 272.39550781 C-447.36606882 290.01115256 -457.52540288 308.20268672 -466.63623047 327.00097656 C-467.70414496 329.18386619 -468.80073282 331.35099506 -469.8984375 333.51904297 C-498.83719118 391.49674561 -514.15357133 456.77916387 -519.04980469 521.11083984 C-519.14890137 522.40731445 -519.14890137 522.40731445 -519.25 523.72998047 C-519.30309326 524.47530029 -519.35618652 525.22062012 -519.41088867 525.98852539 C-519.64453125 528.06201172 -519.64453125 528.06201172 -520.15005493 529.85978699 C-520.72473596 532.41921548 -520.77906019 534.74736605 -520.78979492 537.37109375 C-520.79617477 538.43385529 -520.80255463 539.49661682 -520.80912781 540.59158325 C-520.81024063 541.73940277 -520.81135345 542.88722229 -520.8125 544.06982422 C-520.8158284 545.26445282 -520.8191568 546.45908142 -520.82258606 547.68991089 C-520.82765324 550.22686377 -520.82999445 552.76382332 -520.82983398 555.30078125 C-520.83199543 559.12365271 -520.85008345 562.94622354 -520.86914062 566.76904297 C-520.89865167 579.32514733 -520.65206505 591.62096956 -518.91403198 604.06256104 C-518.45632914 607.45830043 -518.11169239 610.86590748 -517.75 614.27294922 C-510.39628759 681.02614983 -491.56349335 743.96234693 -461.64453125 804.06201172 C-461.20173828 804.95694336 -460.75894531 805.851875 -460.30273438 806.77392578 C-446.13475636 835.22706058 -428.52463516 862.26666951 -408.64453125 887.06201172 C-408.1542041 887.67560547 -407.66387695 888.28919922 -407.15869141 888.92138672 C-391.96014254 907.90906044 -375.93817235 925.83042144 -358.76953125 943.06201172 C-357.88982666 943.94638916 -357.01012207 944.8307666 -356.10375977 945.74194336 C-351.11096382 950.72243829 -346.0130219 955.49049583 -340.64453125 960.06201172 C-339.53840023 961.02348992 -338.4329047 961.98569984 -337.328125 962.94873047 C-304.6328635 991.23043089 -268.85273209 1014.88655797 -230.64453125 1035.06201172 C-229.35071533 1035.7479541 -229.35071533 1035.7479541 -228.03076172 1036.44775391 C-155.65346987 1074.5352926 -72.86693921 1093.25219274 170.78515625 1070.46044922 C212.47403456 1057.39700065 251.94029328 1039.67147762 289.35546875 1017.06201172 C290.1129541 1016.60584473 290.87043945 1016.14967773 291.65087891 1015.6796875 C314.88919113 1001.61994103 336.47622167 985.39286862 357.35546875 968.06201172 C357.94392578 967.57410156 358.53238281 967.08619141 359.13867188 966.58349609 C376.2358844 952.33903155 393.32059618 936.97770716 407.7265625 919.97216797 C409.67784591 917.68397232 411.70364562 915.47102111 413.73046875 913.24951172 C418.46127523 908.00015141 422.92457572 902.56512406 427.35546875 897.06201172 C428.29249428 895.91709199 429.23001713 894.77257914 430.16796875 893.62841797 C437.6856532 884.40987753 444.64492407 874.88126861 451.35546875 865.06201172 C451.91524414 864.2442627 452.47501953 863.42651367 453.05175781 862.58398438 C505.24231696 786.04657309 537.39420833 697.91445119 537.72174072 459.72253418 C521.03405433 371.68576718 481.89904112 288.79181269 424.35546875 220.06201172 C423.94119629 219.56282227 423.52692383 219.06363281 423.10009766 218.54931641 C412.12364658 205.32555787 400.38609106 192.90579984 388.23706055 180.75830078 C386.28600134 178.80503643 384.34313039 176.84385918 382.40039062 174.88232422 C376.08770915 168.54199502 369.75980609 162.47337136 362.71264648 156.94555664 C360.19964437 154.93749747 357.84038881 152.80950169 355.48046875 150.62451172 C350.3151395 145.93610645 344.86328473 141.68034636 339.28222656 137.50439453 C337.9326766 136.49411308 336.58589805 135.48012385 335.24121094 134.46337891 C264.45462798 80.97949628 180.85342935 45.54792664 83.48046875 31.31201172 C82.39093399 31.16016418 82.39093399 31.16016418 81.27938843 31.00524902 C58.88676571 27.92152662 36.51404739 26.64740352 13.91796875 26.68701172 C12.73391449 26.68755554 11.54986023 26.68809937 10.32992554 26.68865967 C-46.30188797 26.80705007 -101.92099034 36.25567104 -155.64453125 54.06201172 Z " fill="#807F7C" transform="translate(582.64453125,49.93798828125)"/>
<path d="M0 0 C3.26833959 3.00853517 6.46194697 6.06785347 9.5625 9.25 C10.119375 9.75015625 10.67625 10.2503125 11.25 10.765625 C34.18908152 32.03977318 47.10207459 68.0018494 48.68798828 98.67724609 C49.14544657 110.84471716 48.42007255 122.40626178 45.5625 134.25 C45.39621094 134.94013184 45.22992187 135.63026367 45.05859375 136.34130859 C42.17115049 147.88306095 37.75006912 158.56735664 32.5625 169.25 C32.1411377 170.12398437 31.71977539 170.99796875 31.28564453 171.8984375 C17.01962199 201.16632538 -2.46896661 227.45840653 -23.4375 252.25 C-23.96617676 252.87777344 -24.49485352 253.50554687 -25.03955078 254.15234375 C-31.15262605 261.40144334 -37.41097813 268.49340852 -43.85546875 275.44921875 C-46.24765653 278.04407297 -48.59621216 280.67179347 -50.9375 283.3125 C-55.09843808 287.95900536 -59.49642828 292.3360335 -63.94140625 296.70703125 C-65.97326632 298.77704832 -67.77863336 300.84698747 -69.5625 303.125 C-73.60316795 307.95749914 -78.74060309 310.71062062 -84.875 311.9375 C-94.63162634 310.05464229 -101.09533198 302.97394325 -107.67578125 296.0546875 C-110.1443879 293.54767254 -112.68558593 291.42936819 -115.4375 289.25 C-116.45115793 288.15597533 -117.43156057 287.03012528 -118.375 285.875 C-121.81282972 281.83536201 -125.53163133 278.15022685 -129.3125 274.4375 C-134.35167874 269.46718783 -138.98629204 264.36597889 -143.37890625 258.8046875 C-145.39054548 256.30826993 -147.50345534 253.97097202 -149.6875 251.625 C-155.51135031 245.22282309 -160.65654589 238.30708451 -165.83837891 231.38427734 C-167.31544914 229.41289597 -168.80321326 227.45007984 -170.29296875 225.48828125 C-181.72656197 210.30761282 -191.60712923 194.06786058 -200.4375 177.25 C-200.76057129 176.63801758 -201.08364258 176.02603516 -201.41650391 175.39550781 C-205.64198533 167.26004759 -208.75445205 158.8548517 -211.6875 150.1875 C-212.0170166 149.2186084 -212.3465332 148.2497168 -212.68603516 147.25146484 C-216.94906138 134.24868972 -218.99838709 121.85629046 -218.875 108.1875 C-218.87195862 107.46899872 -218.86891724 106.75049744 -218.86578369 106.01022339 C-218.78935338 93.74485706 -217.68202461 82.10850894 -214.4375 70.25 C-214.24446289 69.5089502 -214.05142578 68.76790039 -213.85253906 68.00439453 C-208.80546524 49.17110182 -199.24762475 30.93838027 -186.4375 16.25 C-185.66535156 15.3528125 -184.89320313 14.455625 -184.09765625 13.53125 C-181.9204938 11.06007757 -179.69456711 8.6481338 -177.4375 6.25 C-176.5403125 5.25613281 -176.5403125 5.25613281 -175.625 4.2421875 C-156.3204731 -16.31047692 -128.88717957 -27.68113157 -101.4375 -31.75 C-100.5609375 -31.88148438 -99.684375 -32.01296875 -98.78125 -32.1484375 C-62.30541956 -36.64712325 -27.17302897 -24.13604338 0 0 Z " fill="#3EB3E0" transform="translate(675.4375,280.75)"/>
<path d="M0 0 C1.04969971 0.30856934 2.09939941 0.61713867 3.1809082 0.93505859 C11.38786915 3.47384933 18.54927491 6.48542686 23.5 13.8125 C27.54232881 21.89715763 23.91182216 34.23902243 21.6875 42.5 C21.38054199 43.67989502 21.07358398 44.85979004 20.75732422 46.07543945 C7.45661249 96.02592255 -9.83589664 148.63759616 -40.5 190.8125 C-40.95584473 191.44188477 -41.41168945 192.07126953 -41.88134766 192.71972656 C-62.87503376 221.35091417 -91.37070812 238.40639054 -126.50390625 244.03881836 C-160.16818336 248.61707207 -197.1813467 240.59389056 -224.6706543 220.1418457 C-250.89934953 199.90382346 -270.05777526 174.51657069 -277.5 141.8125 C-277.66226074 141.10254883 -277.82452148 140.39259766 -277.99169922 139.66113281 C-285.26972026 106.05755577 -279.97456218 69.98323048 -261.5 40.8125 C-240.58463939 9.38025071 -212.70417836 -11.41768772 -175.6875 -19.875 C-117.63732368 -30.490236 -55.63492314 -16.66059782 0 0 Z " fill="#FBFEA1" transform="translate(527.5,633.1875)"/>
<path d="M0 0 C0.83402344 0.79019531 1.66804688 1.58039062 2.52734375 2.39453125 C3.41292969 3.21566406 4.29851562 4.03679688 5.2109375 4.8828125 C29.98004148 28.59791206 43.86346236 60.78604655 45.71484375 94.84375 C46.40562954 132.01666043 33.15494593 167.75251235 7.3046875 194.65234375 C2.96933141 198.93282191 -1.60219377 202.74002325 -6.47265625 206.39453125 C-7.96732422 207.51988281 -7.96732422 207.51988281 -9.4921875 208.66796875 C-38.68960873 229.76499568 -75.69436942 238.73975538 -111.34765625 233.20703125 C-144.69129263 227.5496848 -173.42231711 210.21416819 -193.29296875 182.9140625 C-211.42397738 157.37083301 -224.35626259 129.53517047 -235.47265625 100.39453125 C-235.92624512 99.2127832 -236.37983398 98.03103516 -236.84716797 96.81347656 C-245.71415577 73.49670521 -252.61823547 49.47894774 -258.59765625 25.26953125 C-258.79786377 24.47812744 -258.99807129 23.68672363 -259.2043457 22.87133789 C-260.6892884 16.56429356 -262.02504035 9.13970568 -258.91015625 3.14453125 C-258.62011719 2.54125 -258.33007812 1.93796875 -258.03125 1.31640625 C-253.31213891 -4.50264802 -247.09698652 -6.78182554 -240.16015625 -8.85546875 C-238.74984131 -9.28762695 -238.74984131 -9.28762695 -237.31103516 -9.72851562 C-234.03864826 -10.71361602 -230.75802271 -11.66456547 -227.47265625 -12.60546875 C-226.22919434 -12.96189453 -224.98573242 -13.31832031 -223.70458984 -13.68554688 C-154.22177159 -33.42634057 -58.7346751 -54.46643647 0 0 Z " fill="#FE717F" transform="translate(888.47265625,643.60546875)"/>
</svg>
